<mxfile host="app.diagrams.net" modified="2023-12-05T02:39:07.123Z" agent="Mozilla/5.0 (Windows NT 10.0; Win64; x64) AppleWebKit/537.36 (KHTML, like Gecko) Chrome/118.0.0.0 Safari/537.36 OPR/104.0.0.0" etag="_JlUd2NAkL2gNNfQpFhe" version="22.1.5" type="google">
  <diagram name="Page-1" id="2YBvvXClWsGukQMizWep">
    <mxGraphModel grid="1" page="1" gridSize="10" guides="1" tooltips="1" connect="1" arrows="1" fold="1" pageScale="1" pageWidth="1100" pageHeight="850" math="0" shadow="0">
      <root>
        <mxCell id="0" />
        <mxCell id="1" parent="0" />
        <mxCell id="Nx4bKYzvf7XmEDV3sr1z-1" value="User Object" style="shape=umlActor;verticalLabelPosition=bottom;verticalAlign=top;html=1;outlineConnect=0;" vertex="1" parent="1">
          <mxGeometry x="150" y="110" width="30" height="60" as="geometry" />
        </mxCell>
        <mxCell id="Nx4bKYzvf7XmEDV3sr1z-8" style="edgeStyle=orthogonalEdgeStyle;rounded=0;orthogonalLoop=1;jettySize=auto;html=1;curved=0;" edge="1" parent="1">
          <mxGeometry relative="1" as="geometry">
            <Array as="points" />
            <mxPoint x="170" y="240.0000000000001" as="sourcePoint" />
            <mxPoint x="410" y="240.0000000000001" as="targetPoint" />
          </mxGeometry>
        </mxCell>
        <mxCell id="Nx4bKYzvf7XmEDV3sr1z-9" value="grantAccess(userRole : string) : bool" style="edgeLabel;html=1;align=center;verticalAlign=middle;resizable=0;points=[];" vertex="1" connectable="0" parent="Nx4bKYzvf7XmEDV3sr1z-8">
          <mxGeometry x="-0.04" y="-1" relative="1" as="geometry">
            <mxPoint y="-11" as="offset" />
          </mxGeometry>
        </mxCell>
        <mxCell id="Nx4bKYzvf7XmEDV3sr1z-2" value="" style="html=1;points=[[0,0,0,0,5],[0,1,0,0,-5],[1,0,0,0,5],[1,1,0,0,-5]];perimeter=orthogonalPerimeter;outlineConnect=0;targetShapes=umlLifeline;portConstraint=eastwest;newEdgeStyle={&quot;curved&quot;:0,&quot;rounded&quot;:0};" vertex="1" parent="1">
          <mxGeometry x="160" y="240" width="10" height="340" as="geometry" />
        </mxCell>
        <mxCell id="Nx4bKYzvf7XmEDV3sr1z-14" style="edgeStyle=orthogonalEdgeStyle;rounded=0;orthogonalLoop=1;jettySize=auto;html=1;curved=0;" edge="1" parent="1">
          <mxGeometry relative="1" as="geometry">
            <Array as="points">
              <mxPoint x="640" y="300" />
            </Array>
            <mxPoint x="640" y="300" as="sourcePoint" />
            <mxPoint x="890" y="299.9999999999999" as="targetPoint" />
          </mxGeometry>
        </mxCell>
        <mxCell id="Nx4bKYzvf7XmEDV3sr1z-15" value="GetUserRole(string userHash): string" style="edgeLabel;html=1;align=center;verticalAlign=middle;resizable=0;points=[];" vertex="1" connectable="0" parent="Nx4bKYzvf7XmEDV3sr1z-14">
          <mxGeometry x="-0.04" y="1" relative="1" as="geometry">
            <mxPoint x="20" y="-9" as="offset" />
          </mxGeometry>
        </mxCell>
        <mxCell id="Nx4bKYzvf7XmEDV3sr1z-44" style="edgeStyle=orthogonalEdgeStyle;rounded=0;orthogonalLoop=1;jettySize=auto;html=1;curved=0;dashed=1;" edge="1" parent="1">
          <mxGeometry relative="1" as="geometry">
            <mxPoint x="410" y="580.0000000000001" as="sourcePoint" />
            <mxPoint x="170" y="580.0000000000001" as="targetPoint" />
            <Array as="points" />
          </mxGeometry>
        </mxCell>
        <mxCell id="Nx4bKYzvf7XmEDV3sr1z-45" value="return True" style="edgeLabel;html=1;align=center;verticalAlign=middle;resizable=0;points=[];" vertex="1" connectable="0" parent="Nx4bKYzvf7XmEDV3sr1z-44">
          <mxGeometry x="-0.262" y="4" relative="1" as="geometry">
            <mxPoint x="-42" y="-24" as="offset" />
          </mxGeometry>
        </mxCell>
        <mxCell id="NkUf0I9Ahl-sqfVT3YJn-8" style="edgeStyle=orthogonalEdgeStyle;rounded=0;orthogonalLoop=1;jettySize=auto;html=1;curved=0;dashed=1;" edge="1" parent="1">
          <mxGeometry relative="1" as="geometry">
            <mxPoint x="635" y="550" as="sourcePoint" />
            <mxPoint x="420" y="550" as="targetPoint" />
          </mxGeometry>
        </mxCell>
        <mxCell id="NkUf0I9Ahl-sqfVT3YJn-9" value="return True" style="edgeLabel;html=1;align=center;verticalAlign=middle;resizable=0;points=[];" vertex="1" connectable="0" parent="NkUf0I9Ahl-sqfVT3YJn-8">
          <mxGeometry x="-0.0235" y="1" relative="1" as="geometry">
            <mxPoint x="-9" y="-16" as="offset" />
          </mxGeometry>
        </mxCell>
        <mxCell id="Nx4bKYzvf7XmEDV3sr1z-5" value="" style="html=1;points=[[0,0,0,0,5],[0,1,0,0,-5],[1,0,0,0,5],[1,1,0,0,-5]];perimeter=orthogonalPerimeter;outlineConnect=0;targetShapes=umlLifeline;portConstraint=eastwest;newEdgeStyle={&quot;curved&quot;:0,&quot;rounded&quot;:0};" vertex="1" parent="1">
          <mxGeometry x="635" y="270" width="10" height="280" as="geometry" />
        </mxCell>
        <mxCell id="NkUf0I9Ahl-sqfVT3YJn-5" style="edgeStyle=orthogonalEdgeStyle;rounded=0;orthogonalLoop=1;jettySize=auto;html=1;curved=0;dashed=1;" edge="1" parent="1">
          <mxGeometry relative="1" as="geometry">
            <mxPoint x="890" y="410" as="sourcePoint" />
            <mxPoint x="640" y="410" as="targetPoint" />
            <Array as="points">
              <mxPoint x="830" y="410" />
              <mxPoint x="830" y="410" />
            </Array>
          </mxGeometry>
        </mxCell>
        <mxCell id="NkUf0I9Ahl-sqfVT3YJn-6" value="return Role" style="edgeLabel;html=1;align=center;verticalAlign=middle;resizable=0;points=[];" vertex="1" connectable="0" parent="NkUf0I9Ahl-sqfVT3YJn-5">
          <mxGeometry x="-0.232" relative="1" as="geometry">
            <mxPoint x="-29" y="-10" as="offset" />
          </mxGeometry>
        </mxCell>
        <mxCell id="Nx4bKYzvf7XmEDV3sr1z-17" value="" style="html=1;points=[[0,0,0,0,5],[0,1,0,0,-5],[1,0,0,0,5],[1,1,0,0,-5]];perimeter=orthogonalPerimeter;outlineConnect=0;targetShapes=umlLifeline;portConstraint=eastwest;newEdgeStyle={&quot;curved&quot;:0,&quot;rounded&quot;:0};" vertex="1" parent="1">
          <mxGeometry x="890" y="300" width="10" height="110" as="geometry" />
        </mxCell>
        <mxCell id="Nx4bKYzvf7XmEDV3sr1z-21" value="Authorization Class returns userRole" style="text;html=1;align=center;verticalAlign=middle;whiteSpace=wrap;rounded=0;fillColor=default;" vertex="1" parent="1">
          <mxGeometry x="100" y="249" width="90" height="51" as="geometry" />
        </mxCell>
        <mxCell id="Nx4bKYzvf7XmEDV3sr1z-26" style="edgeStyle=orthogonalEdgeStyle;rounded=0;orthogonalLoop=1;jettySize=auto;html=1;curved=0;entryX=1;entryY=0.278;entryDx=0;entryDy=0;entryPerimeter=0;" edge="1" parent="1" target="Nx4bKYzvf7XmEDV3sr1z-17">
          <mxGeometry relative="1" as="geometry">
            <Array as="points">
              <mxPoint x="980" y="330" />
              <mxPoint x="980" y="365" />
              <mxPoint x="900" y="365" />
            </Array>
            <mxPoint x="900" y="330" as="sourcePoint" />
            <mxPoint x="940" y="365" as="targetPoint" />
          </mxGeometry>
        </mxCell>
        <mxCell id="Nx4bKYzvf7XmEDV3sr1z-27" value="Select Role from UserProfile&lt;br&gt;Where&lt;br&gt;userHash = UserHash" style="edgeLabel;html=1;align=center;verticalAlign=middle;resizable=0;points=[];" vertex="1" connectable="0" parent="Nx4bKYzvf7XmEDV3sr1z-26">
          <mxGeometry x="-0.2923" y="1" relative="1" as="geometry">
            <mxPoint x="9" y="71" as="offset" />
          </mxGeometry>
        </mxCell>
        <mxCell id="Nx4bKYzvf7XmEDV3sr1z-37" value="Authorization Class" style="text;html=1;strokeColor=none;fillColor=none;align=center;verticalAlign=middle;whiteSpace=wrap;rounded=0;" vertex="1" parent="1">
          <mxGeometry x="385" y="170" width="60" height="30" as="geometry" />
        </mxCell>
        <mxCell id="Nx4bKYzvf7XmEDV3sr1z-39" value="SQLServer" style="text;html=1;strokeColor=none;fillColor=none;align=center;verticalAlign=middle;whiteSpace=wrap;rounded=0;" vertex="1" parent="1">
          <mxGeometry x="870" y="181" width="60" height="30" as="geometry" />
        </mxCell>
        <mxCell id="Nx4bKYzvf7XmEDV3sr1z-42" value="&lt;font style=&quot;font-size: 44px;&quot;&gt;Authorization Success Outcome&lt;/font&gt;" style="rounded=0;whiteSpace=wrap;html=1;" vertex="1" parent="1">
          <mxGeometry x="220" y="20" width="650" height="90" as="geometry" />
        </mxCell>
        <mxCell id="jih3qBDAf6gmADuKPEDb-1" value="" style="html=1;points=[[0,0,0,0,5],[0,1,0,0,-5],[1,0,0,0,5],[1,1,0,0,-5]];perimeter=orthogonalPerimeter;outlineConnect=0;targetShapes=umlLifeline;portConstraint=eastwest;newEdgeStyle={&quot;curved&quot;:0,&quot;rounded&quot;:0};" vertex="1" parent="1">
          <mxGeometry x="410" y="240" width="10" height="340" as="geometry" />
        </mxCell>
        <mxCell id="jih3qBDAf6gmADuKPEDb-2" value="GetFeatureAccess(string userHash): bool" style="html=1;verticalAlign=bottom;endArrow=block;curved=0;rounded=0;" edge="1" parent="1" target="Nx4bKYzvf7XmEDV3sr1z-5">
          <mxGeometry y="10" relative="1" as="geometry">
            <mxPoint x="420" y="270.0000000000001" as="sourcePoint" />
            <mxPoint x="630" y="270" as="targetPoint" />
            <mxPoint as="offset" />
          </mxGeometry>
        </mxCell>
        <mxCell id="jih3qBDAf6gmADuKPEDb-4" value="Role Object" style="text;align=center;fontStyle=1;verticalAlign=middle;spacingLeft=3;spacingRight=3;strokeColor=none;rotatable=0;points=[[0,0.5],[1,0.5]];portConstraint=eastwest;html=1;" vertex="1" parent="1">
          <mxGeometry x="600" y="170" width="80" height="30" as="geometry" />
        </mxCell>
        <mxCell id="NkUf0I9Ahl-sqfVT3YJn-40" style="edgeStyle=orthogonalEdgeStyle;rounded=0;orthogonalLoop=1;jettySize=auto;html=1;curved=0;elbow=vertical;" edge="1" parent="1">
          <mxGeometry relative="1" as="geometry">
            <mxPoint x="645" y="420" as="sourcePoint" />
            <mxPoint x="645" y="540" as="targetPoint" />
            <Array as="points">
              <mxPoint x="690" y="480" />
            </Array>
          </mxGeometry>
        </mxCell>
        <mxCell id="NkUf0I9Ahl-sqfVT3YJn-41" value="RoleObject userRole = new UserRole(userHash)" style="edgeLabel;html=1;align=center;verticalAlign=middle;resizable=0;points=[];" vertex="1" connectable="0" parent="NkUf0I9Ahl-sqfVT3YJn-40">
          <mxGeometry x="-0.5167" y="2" relative="1" as="geometry">
            <mxPoint x="123" y="39" as="offset" />
          </mxGeometry>
        </mxCell>
        <mxCell id="NkUf0I9Ahl-sqfVT3YJn-45" value="" style="line;strokeWidth=2;direction=south;html=1;dashed=1;" vertex="1" parent="1">
          <mxGeometry x="635" y="210" width="10" height="60" as="geometry" />
        </mxCell>
        <mxCell id="NkUf0I9Ahl-sqfVT3YJn-46" value="" style="line;strokeWidth=2;direction=south;html=1;dashed=1;" vertex="1" parent="1">
          <mxGeometry x="635" y="550" width="10" height="30" as="geometry" />
        </mxCell>
        <mxCell id="NkUf0I9Ahl-sqfVT3YJn-47" value="" style="line;strokeWidth=2;direction=south;html=1;dashed=1;" vertex="1" parent="1">
          <mxGeometry x="890" y="410" width="10" height="170" as="geometry" />
        </mxCell>
        <mxCell id="NkUf0I9Ahl-sqfVT3YJn-48" value="" style="line;strokeWidth=2;direction=south;html=1;dashed=1;" vertex="1" parent="1">
          <mxGeometry x="890" y="205" width="10" height="95" as="geometry" />
        </mxCell>
        <mxCell id="NkUf0I9Ahl-sqfVT3YJn-49" value="" style="line;strokeWidth=2;direction=south;html=1;dashed=1;" vertex="1" parent="1">
          <mxGeometry x="410" y="211" width="10" height="29" as="geometry" />
        </mxCell>
        <mxCell id="NkUf0I9Ahl-sqfVT3YJn-50" value="" style="line;strokeWidth=2;direction=south;html=1;dashed=1;" vertex="1" parent="1">
          <mxGeometry x="160" y="200" width="10" height="40" as="geometry" />
        </mxCell>
      </root>
    </mxGraphModel>
  </diagram>
</mxfile>
